<svg id="Layer_1" data-name="Layer 1" xmlns="http://www.w3.org/2000/svg" viewBox="0 0 128.5 105.83"><title>main_cs_1</title><path d="M113.29,14.18a11.4,11.4,0,0,0-11,14.6L74,52.56a11,11,0,0,0-5.55-.66L56.67,36.07a11.43,11.43,0,1,0-21.26-2.49L19,47.06a11.53,11.53,0,1,0,5.73,8L41.62,41.19a11.33,11.33,0,0,0,7.26.86l11.27,15.2a11.42,11.42,0,1,0,20.59,2.44l28.1-23.56A11.42,11.42,0,1,0,113.29,14.18Z" style="fill:#63c0bd"/><path d="M30.89,31.83q0-.48,0-1a15.64,15.64,0,1,1,31.28,0,15.45,15.45,0,0,1-.68,4.57l9,12.14a15.43,15.43,0,0,1,2.51.3L95,29.45,50.92,4A16.54,16.54,0,0,0,26.12,18.34V35.75Z" style="fill:#dd0f7b"/><path d="M109.78,40.85L85.4,61.29a15.44,15.44,0,0,1,.12,1.93,15.64,15.64,0,1,1-30.27-5.51l-8.3-11.2H46.51A15.44,15.44,0,0,1,42.44,46L29.11,56.91c0,0.05,0,.1,0,0.16a15.55,15.55,0,0,1-3,9.18V84.19A16.54,16.54,0,0,0,50.92,98.51l57-32.92a16.56,16.56,0,0,0,4.9-24.35A15.59,15.59,0,0,1,109.78,40.85Z" style="fill:#4886c6"/></svg>