<svg id="Layer_1" data-name="Layer 1" xmlns="http://www.w3.org/2000/svg" xmlns:xlink="http://www.w3.org/1999/xlink" viewBox="0 0 1920 1080"><defs><clipPath id="clip-path"><rect x="27.83" y="6.76" width="1895.95" height="1066.47" style="fill:none"/></clipPath><clipPath id="clip-path-2"><rect x="-3.77" y="853.03" width="1149.42" height="59.25" style="fill:none"/></clipPath></defs><title>BG</title><g id="download.psd"><g style="clip-path:url(#clip-path)"><g id="logo_копия_4" data-name="logo копия 4"><text transform="translate(891.18 460.65)" style="font-size:59.248390197753906px;fill:#fff;font-family:Sansation Bold"><tspan style="font-weight:700;letter-spacing:-4px">T</tspan><tspan x="25.24" y="0" style="font-weight:700">ele</tspan><tspan x="98.59" y="0" style="font-family:Sansation Regular">DS</tspan></text><g id="Прямоугольник_1" data-name="Прямоугольник 1"><rect x="915.56" y="537.04" width="120.47" height="5.92" style="fill:#3cbfb9"/></g></g><text transform="translate(728.22 669.48)" style="font-size:47.398712158203125px;fill:#fff;font-family:Ubuntu Medium">D<tspan x="31.76" y="0">o</tspan><tspan x="57.45" y="0">wnloading campai</tspan><tspan x="423.88" y="0">g</tspan><tspan x="450.09" y="0">ns</tspan><tspan style="fill:#3dbfb9"><tspan x="123.12" y="71.1">P</tspan><tspan x="148.1" y="71.1">lease </tspan><tspan x="258.44" y="71.1">w</tspan><tspan x="293.13" y="71.1">ai</tspan><tspan x="327.07" y="71.1">t</tspan><tspan x="342.62" y="71.1">...</tspan></tspan></text><g id="bar"><g id="Прямоугольник_2" data-name="Прямоугольник 2"><rect x="27.83" y="853.03" width="1895.95" height="59.25" style="fill:#181c20"/></g><g id="Прямоугольник_2_копия" data-name="Прямоугольник 2 копия" style="isolation:isolate"><g style="clip-path:url(#clip-path-2)"></g></g></g></g></g><rect width="1920" height="1080" style="fill:#353f47"/><polygon points="341.92 16.5 329.67 37.5 341.92 37.5 341.92 16.5" style="fill:none;stroke:#4c545c;stroke-miterlimit:10;stroke-width:2.2px"/><polygon points="785.8 16.5 773.55 37.5 785.8 37.5 785.8 16.5" style="fill:none;stroke:#4c545c;stroke-miterlimit:10;stroke-width:2.2px"/><polygon points="1229.68 16.5 1217.43 37.5 1229.68 37.5 1229.68 16.5" style="fill:none;stroke:#4c545c;stroke-miterlimit:10;stroke-width:2.2px"/><polygon points="1673.57 16.5 1661.32 37.5 1673.57 37.5 1673.57 16.5" style="fill:none;stroke:#4c545c;stroke-miterlimit:10;stroke-width:2.2px"/><polygon points="341.92 427.83 329.67 448.83 341.92 448.83 341.92 427.83" style="fill:none;stroke:#4c545c;stroke-miterlimit:10;stroke-width:2.2px"/><polygon points="785.8 427.83 773.55 448.83 785.8 448.83 785.8 427.83" style="fill:none;stroke:#4c545c;stroke-miterlimit:10;stroke-width:2.2px"/><polygon points="1229.68 427.83 1217.43 448.83 1229.68 448.83 1229.68 427.83" style="fill:none;stroke:#4c545c;stroke-miterlimit:10;stroke-width:2.2px"/><polygon points="1673.57 427.83 1661.32 448.83 1673.57 448.83 1673.57 427.83" style="fill:none;stroke:#4c545c;stroke-miterlimit:10;stroke-width:2.2px"/><polygon points="341.92 838.5 329.67 859.5 341.92 859.5 341.92 838.5" style="fill:none;stroke:#4c545c;stroke-miterlimit:10;stroke-width:2.2px"/><polygon points="785.8 838.5 773.55 859.5 785.8 859.5 785.8 838.5" style="fill:none;stroke:#4c545c;stroke-miterlimit:10;stroke-width:2.2px"/><polygon points="1229.68 838.5 1217.43 859.5 1229.68 859.5 1229.68 838.5" style="fill:none;stroke:#4c545c;stroke-miterlimit:10;stroke-width:2.2px"/><polygon points="1673.57 838.5 1661.32 859.5 1673.57 859.5 1673.57 838.5" style="fill:none;stroke:#4c545c;stroke-miterlimit:10;stroke-width:2.2px"/><circle cx="125.83" cy="19" r="10" style="fill:none;stroke:#4c545c;stroke-miterlimit:10;stroke-width:2.2px"/><circle cx="569.5" cy="19" r="10" style="fill:none;stroke:#4c545c;stroke-miterlimit:10;stroke-width:2.2px"/><circle cx="1013.17" cy="19" r="10" style="fill:none;stroke:#4c545c;stroke-miterlimit:10;stroke-width:2.2px"/><circle cx="1456.83" cy="19" r="10" style="fill:none;stroke:#4c545c;stroke-miterlimit:10;stroke-width:2.2px"/><circle cx="1900.5" cy="19" r="10" style="fill:none;stroke:#4c545c;stroke-miterlimit:10;stroke-width:2.2px"/><circle cx="125.83" cy="428.33" r="10" style="fill:none;stroke:#4c545c;stroke-miterlimit:10;stroke-width:2.2px"/><circle cx="569.5" cy="428.33" r="10" style="fill:none;stroke:#4c545c;stroke-miterlimit:10;stroke-width:2.2px"/><circle cx="1013.17" cy="428.33" r="10" style="fill:none;stroke:#4c545c;stroke-miterlimit:10;stroke-width:2.2px"/><circle cx="1456.83" cy="428.33" r="10" style="fill:none;stroke:#4c545c;stroke-miterlimit:10;stroke-width:2.2px"/><circle cx="1900.5" cy="428.33" r="10" style="fill:none;stroke:#4c545c;stroke-miterlimit:10;stroke-width:2.2px"/><circle cx="125.83" cy="839" r="10" style="fill:none;stroke:#4c545c;stroke-miterlimit:10;stroke-width:2.2px"/><circle cx="569.5" cy="839" r="10" style="fill:none;stroke:#4c545c;stroke-miterlimit:10;stroke-width:2.2px"/><circle cx="1013.17" cy="839" r="10" style="fill:none;stroke:#4c545c;stroke-miterlimit:10;stroke-width:2.2px"/><circle cx="1456.83" cy="839" r="10" style="fill:none;stroke:#4c545c;stroke-miterlimit:10;stroke-width:2.2px"/><circle cx="1900.5" cy="839" r="10" style="fill:none;stroke:#4c545c;stroke-miterlimit:10;stroke-width:2.2px"/><polygon points="286.57 255.68 280.32 247.97 283.88 238.7 293.68 237.14 299.93 244.85 296.37 254.12 286.57 255.68" style="fill:none;stroke:#4c545c;stroke-miterlimit:10;stroke-width:2.2px"/><polygon points="730.32 255.68 724.07 247.97 727.62 238.7 737.43 237.14 743.67 244.85 740.12 254.12 730.32 255.68" style="fill:none;stroke:#4c545c;stroke-miterlimit:10;stroke-width:2.2px"/><polygon points="1174.07 255.68 1167.82 247.97 1171.37 238.7 1181.17 237.14 1187.42 244.85 1183.87 254.12 1174.07 255.68" style="fill:none;stroke:#4c545c;stroke-miterlimit:10;stroke-width:2.2px"/><polygon points="1617.82 255.68 1611.57 247.97 1615.12 238.7 1624.92 237.14 1631.17 244.85 1627.62 254.12 1617.82 255.68" style="fill:none;stroke:#4c545c;stroke-miterlimit:10;stroke-width:2.2px"/><polygon points="286.57 1075.45 280.32 1067.74 283.88 1058.47 293.68 1056.91 299.93 1064.63 296.37 1073.89 286.57 1075.45" style="fill:none;stroke:#4c545c;stroke-miterlimit:10;stroke-width:2.2px"/><polygon points="730.32 1075.45 724.07 1067.74 727.62 1058.47 737.43 1056.91 743.67 1064.63 740.12 1073.89 730.32 1075.45" style="fill:none;stroke:#4c545c;stroke-miterlimit:10;stroke-width:2.2px"/><polygon points="1174.07 1075.45 1167.82 1067.74 1171.37 1058.47 1181.17 1056.91 1187.42 1064.63 1183.87 1073.89 1174.07 1075.45" style="fill:none;stroke:#4c545c;stroke-miterlimit:10;stroke-width:2.2px"/><polygon points="1617.82 1075.45 1611.57 1067.74 1615.12 1058.47 1624.92 1056.91 1631.17 1064.63 1627.62 1073.89 1617.82 1075.45" style="fill:none;stroke:#4c545c;stroke-miterlimit:10;stroke-width:2.2px"/><polygon points="286.57 667.56 280.32 659.85 283.88 650.58 293.68 649.02 299.93 656.73 296.37 666 286.57 667.56" style="fill:none;stroke:#4c545c;stroke-miterlimit:10;stroke-width:2.2px"/><polygon points="730.32 667.56 724.07 659.85 727.62 650.58 737.43 649.02 743.67 656.73 740.12 666 730.32 667.56" style="fill:none;stroke:#4c545c;stroke-miterlimit:10;stroke-width:2.2px"/><polygon points="1174.07 667.56 1167.82 659.85 1171.37 650.58 1181.17 649.02 1187.42 656.73 1183.87 666 1174.07 667.56" style="fill:none;stroke:#4c545c;stroke-miterlimit:10;stroke-width:2.2px"/><polygon points="1617.82 667.56 1611.57 659.85 1615.12 650.58 1624.92 649.02 1631.17 656.73 1627.62 666 1617.82 667.56" style="fill:none;stroke:#4c545c;stroke-miterlimit:10;stroke-width:2.2px"/><rect x="10.87" y="57.95" width="13.34" height="13.34" transform="translate(-33.67 21.48) rotate(-34.7)" style="fill:none;stroke:#4c545c;stroke-miterlimit:10;stroke-width:2.2px"/><rect x="454.54" y="57.95" width="13.34" height="13.34" transform="translate(45.22 274.02) rotate(-34.7)" style="fill:none;stroke:#4c545c;stroke-miterlimit:10;stroke-width:2.2px"/><rect x="898.2" y="57.95" width="13.34" height="13.34" transform="translate(124.11 526.55) rotate(-34.7)" style="fill:none;stroke:#4c545c;stroke-miterlimit:10;stroke-width:2.2px"/><rect x="1341.87" y="57.95" width="13.34" height="13.34" transform="translate(203 779.09) rotate(-34.7)" style="fill:none;stroke:#4c545c;stroke-miterlimit:10;stroke-width:2.2px"/><rect x="1785.54" y="57.95" width="13.34" height="13.34" transform="translate(281.88 1031.63) rotate(-34.7)" style="fill:none;stroke:#4c545c;stroke-miterlimit:10;stroke-width:2.2px"/><rect x="9.99" y="468.16" width="13.34" height="13.34" transform="translate(-267.32 93.92) rotate(-34.7)" style="fill:none;stroke:#4c545c;stroke-miterlimit:10;stroke-width:2.2px"/><rect x="453.66" y="468.16" width="13.34" height="13.34" transform="translate(-188.43 346.46) rotate(-34.7)" style="fill:none;stroke:#4c545c;stroke-miterlimit:10;stroke-width:2.2px"/><rect x="897.33" y="468.16" width="13.34" height="13.34" transform="translate(-109.54 598.99) rotate(-34.7)" style="fill:none;stroke:#4c545c;stroke-miterlimit:10;stroke-width:2.2px"/><rect x="1340.99" y="468.16" width="13.34" height="13.34" transform="translate(-30.65 851.53) rotate(-34.7)" style="fill:none;stroke:#4c545c;stroke-miterlimit:10;stroke-width:2.2px"/><rect x="1784.66" y="468.16" width="13.34" height="13.34" transform="translate(48.23 1104.07) rotate(-34.7)" style="fill:none;stroke:#4c545c;stroke-miterlimit:10;stroke-width:2.2px"/><line x1="209.67" y1="39.75" x2="224.42" y2="49.5" style="fill:none;stroke:#4c545c;stroke-miterlimit:10;stroke-width:2.2px"/><line x1="653.49" y1="39.75" x2="668.24" y2="49.5" style="fill:none;stroke:#4c545c;stroke-miterlimit:10;stroke-width:2.2px"/><line x1="1097.31" y1="39.75" x2="1112.06" y2="49.5" style="fill:none;stroke:#4c545c;stroke-miterlimit:10;stroke-width:2.2px"/><line x1="1541.13" y1="39.75" x2="1555.88" y2="49.5" style="fill:none;stroke:#4c545c;stroke-miterlimit:10;stroke-width:2.2px"/><line x1="315.07" y1="316.3" x2="329.82" y2="326.05" style="fill:none;stroke:#4c545c;stroke-miterlimit:10;stroke-width:2.2px"/><line x1="758.9" y1="316.3" x2="773.65" y2="326.05" style="fill:none;stroke:#4c545c;stroke-miterlimit:10;stroke-width:2.2px"/><line x1="1202.72" y1="316.3" x2="1217.47" y2="326.05" style="fill:none;stroke:#4c545c;stroke-miterlimit:10;stroke-width:2.2px"/><line x1="1646.54" y1="316.3" x2="1661.29" y2="326.05" style="fill:none;stroke:#4c545c;stroke-miterlimit:10;stroke-width:2.2px"/><line x1="209.67" y1="450.69" x2="224.42" y2="460.44" style="fill:none;stroke:#4c545c;stroke-miterlimit:10;stroke-width:2.2px"/><line x1="653.49" y1="450.69" x2="668.24" y2="460.44" style="fill:none;stroke:#4c545c;stroke-miterlimit:10;stroke-width:2.2px"/><line x1="1097.31" y1="450.69" x2="1112.06" y2="460.44" style="fill:none;stroke:#4c545c;stroke-miterlimit:10;stroke-width:2.2px"/><line x1="1541.13" y1="450.69" x2="1555.88" y2="460.44" style="fill:none;stroke:#4c545c;stroke-miterlimit:10;stroke-width:2.2px"/><line x1="318.51" y1="726.73" x2="333.26" y2="736.48" style="fill:none;stroke:#4c545c;stroke-miterlimit:10;stroke-width:2.2px"/><line x1="762.33" y1="726.73" x2="777.08" y2="736.48" style="fill:none;stroke:#4c545c;stroke-miterlimit:10;stroke-width:2.2px"/><line x1="1206.15" y1="726.73" x2="1220.9" y2="736.48" style="fill:none;stroke:#4c545c;stroke-miterlimit:10;stroke-width:2.2px"/><line x1="1649.97" y1="726.73" x2="1664.72" y2="736.48" style="fill:none;stroke:#4c545c;stroke-miterlimit:10;stroke-width:2.2px"/><rect x="35.58" y="268.1" width="10.25" height="22.95" transform="translate(-45.77 10.61) rotate(-9.54)" style="fill:none;stroke:#4c545c;stroke-miterlimit:10;stroke-width:2.2px"/><rect x="479.25" y="268.1" width="10.25" height="22.95" transform="translate(-39.64 84.14) rotate(-9.54)" style="fill:none;stroke:#4c545c;stroke-miterlimit:10;stroke-width:2.2px"/><rect x="922.91" y="268.1" width="10.25" height="22.95" transform="translate(-33.5 157.68) rotate(-9.54)" style="fill:none;stroke:#4c545c;stroke-miterlimit:10;stroke-width:2.2px"/><rect x="1366.58" y="268.1" width="10.25" height="22.95" transform="translate(-27.37 231.21) rotate(-9.54)" style="fill:none;stroke:#4c545c;stroke-miterlimit:10;stroke-width:2.2px"/><rect x="1810.25" y="268.1" width="10.25" height="22.95" transform="translate(-21.23 304.74) rotate(-9.54)" style="fill:none;stroke:#4c545c;stroke-miterlimit:10;stroke-width:2.2px"/><rect x="35.58" y="680.52" width="10.25" height="22.95" transform="translate(-114.13 16.32) rotate(-9.54)" style="fill:none;stroke:#4c545c;stroke-miterlimit:10;stroke-width:2.2px"/><rect x="479.25" y="680.52" width="10.25" height="22.95" transform="translate(-107.99 89.85) rotate(-9.54)" style="fill:none;stroke:#4c545c;stroke-miterlimit:10;stroke-width:2.2px"/><rect x="922.91" y="680.52" width="10.25" height="22.95" transform="translate(-101.86 163.38) rotate(-9.54)" style="fill:none;stroke:#4c545c;stroke-miterlimit:10;stroke-width:2.2px"/><rect x="1366.58" y="680.52" width="10.25" height="22.95" transform="translate(-95.72 236.91) rotate(-9.54)" style="fill:none;stroke:#4c545c;stroke-miterlimit:10;stroke-width:2.2px"/><rect x="1810.25" y="680.52" width="10.25" height="22.95" transform="translate(-89.58 310.44) rotate(-9.54)" style="fill:none;stroke:#4c545c;stroke-miterlimit:10;stroke-width:2.2px"/><circle cx="140.33" cy="92" r="4.5" style="fill:#4c545c"/><circle cx="582.33" cy="92" r="4.5" style="fill:#4c545c"/><circle cx="1025.33" cy="92" r="4.5" style="fill:#4c545c"/><circle cx="1466.33" cy="92" r="4.5" style="fill:#4c545c"/><circle cx="1908.33" cy="92" r="4.5" style="fill:#4c545c"/><circle cx="454.9" cy="777.63" r="4.5" style="fill:#4c545c"/><circle cx="11.8" cy="777.63" r="4.5" style="fill:#4c545c"/><circle cx="896.9" cy="777.63" r="4.5" style="fill:#4c545c"/><circle cx="1339.9" cy="777.63" r="4.5" style="fill:#4c545c"/><circle cx="1780.9" cy="777.63" r="4.5" style="fill:#4c545c"/><polygon points="233.67 124.5 227.29 138 217.94 126.36 224.85 113.63 233.67 124.5" style="fill:none;stroke:#4c545c;stroke-miterlimit:10;stroke-width:2.2px"/><polygon points="676.1 124.5 669.73 138 660.38 126.36 667.29 113.63 676.1 124.5" style="fill:none;stroke:#4c545c;stroke-miterlimit:10;stroke-width:2.2px"/><polygon points="1118.54 124.5 1112.16 138 1102.81 126.36 1109.72 113.63 1118.54 124.5" style="fill:none;stroke:#4c545c;stroke-miterlimit:10;stroke-width:2.2px"/><polygon points="1560.97 124.5 1554.6 138 1545.24 126.36 1552.16 113.63 1560.97 124.5" style="fill:none;stroke:#4c545c;stroke-miterlimit:10;stroke-width:2.2px"/><polygon points="233.67 536.13 227.29 549.63 217.94 538 224.85 525.26 233.67 536.13" style="fill:none;stroke:#4c545c;stroke-miterlimit:10;stroke-width:2.2px"/><polygon points="676.1 536.13 669.73 549.63 660.38 538 667.29 525.26 676.1 536.13" style="fill:none;stroke:#4c545c;stroke-miterlimit:10;stroke-width:2.2px"/><polygon points="1118.54 536.13 1112.16 549.63 1102.81 538 1109.72 525.26 1118.54 536.13" style="fill:none;stroke:#4c545c;stroke-miterlimit:10;stroke-width:2.2px"/><polygon points="1560.97 536.13 1554.6 549.63 1545.24 538 1552.16 525.26 1560.97 536.13" style="fill:none;stroke:#4c545c;stroke-miterlimit:10;stroke-width:2.2px"/><polygon points="233.67 945.93 227.29 959.43 217.94 947.8 224.85 935.06 233.67 945.93" style="fill:none;stroke:#4c545c;stroke-miterlimit:10;stroke-width:2.2px"/><polygon points="676.1 945.93 669.73 959.43 660.38 947.8 667.29 935.06 676.1 945.93" style="fill:none;stroke:#4c545c;stroke-miterlimit:10;stroke-width:2.2px"/><polygon points="1118.54 945.93 1112.16 959.43 1102.81 947.8 1109.72 935.06 1118.54 945.93" style="fill:none;stroke:#4c545c;stroke-miterlimit:10;stroke-width:2.2px"/><polygon points="1560.97 945.93 1554.6 959.43 1545.24 947.8 1552.16 935.06 1560.97 945.93" style="fill:none;stroke:#4c545c;stroke-miterlimit:10;stroke-width:2.2px"/><line x1="439" y1="128.85" x2="453.6" y2="127.65" style="fill:none;stroke:#4c545c;stroke-miterlimit:10;stroke-width:2.2px"/><line x1="885.3" y1="128.85" x2="899.9" y2="127.65" style="fill:none;stroke:#4c545c;stroke-miterlimit:10;stroke-width:2.2px"/><line x1="1331.6" y1="128.85" x2="1346.2" y2="127.65" style="fill:none;stroke:#4c545c;stroke-miterlimit:10;stroke-width:2.2px"/><line x1="1777.9" y1="128.85" x2="1792.49" y2="127.65" style="fill:none;stroke:#4c545c;stroke-miterlimit:10;stroke-width:2.2px"/><line x1="-7.3" y1="128.85" x2="7.3" y2="127.65" style="fill:none;stroke:#4c545c;stroke-miterlimit:10;stroke-width:2.2px"/><line x1="439" y1="540.6" x2="453.6" y2="539.4" style="fill:none;stroke:#4c545c;stroke-miterlimit:10;stroke-width:2.2px"/><line x1="885.3" y1="540.6" x2="899.9" y2="539.4" style="fill:none;stroke:#4c545c;stroke-miterlimit:10;stroke-width:2.2px"/><line x1="1331.6" y1="540.6" x2="1346.2" y2="539.4" style="fill:none;stroke:#4c545c;stroke-miterlimit:10;stroke-width:2.2px"/><line x1="1777.9" y1="540.6" x2="1792.49" y2="539.4" style="fill:none;stroke:#4c545c;stroke-miterlimit:10;stroke-width:2.2px"/><line x1="-7.3" y1="540.6" x2="7.3" y2="539.4" style="fill:none;stroke:#4c545c;stroke-miterlimit:10;stroke-width:2.2px"/><line x1="439" y1="948.45" x2="453.6" y2="947.24" style="fill:none;stroke:#4c545c;stroke-miterlimit:10;stroke-width:2.2px"/><line x1="885.3" y1="948.45" x2="899.9" y2="947.24" style="fill:none;stroke:#4c545c;stroke-miterlimit:10;stroke-width:2.2px"/><line x1="1331.6" y1="948.45" x2="1346.2" y2="947.24" style="fill:none;stroke:#4c545c;stroke-miterlimit:10;stroke-width:2.2px"/><line x1="1777.9" y1="948.45" x2="1792.49" y2="947.24" style="fill:none;stroke:#4c545c;stroke-miterlimit:10;stroke-width:2.2px"/><line x1="-7.3" y1="948.45" x2="7.3" y2="947.24" style="fill:none;stroke:#4c545c;stroke-miterlimit:10;stroke-width:2.2px"/><line x1="59.17" y1="407.5" x2="59.17" y2="418.33" style="fill:none;stroke:#4c545c;stroke-miterlimit:10;stroke-width:2.2px"/><line x1="501.67" y1="407.5" x2="501.67" y2="418.33" style="fill:none;stroke:#4c545c;stroke-miterlimit:10;stroke-width:2.2px"/><line x1="944.17" y1="407.5" x2="944.17" y2="418.33" style="fill:none;stroke:#4c545c;stroke-miterlimit:10;stroke-width:2.2px"/><line x1="1386.67" y1="407.5" x2="1386.67" y2="418.33" style="fill:none;stroke:#4c545c;stroke-miterlimit:10;stroke-width:2.2px"/><line x1="1829.17" y1="407.5" x2="1829.17" y2="418.33" style="fill:none;stroke:#4c545c;stroke-miterlimit:10;stroke-width:2.2px"/><polygon points="67.33 146.33 67.33 165.33 81.67 152.67 67.33 146.33" style="fill:none;stroke:#4c545c;stroke-miterlimit:10;stroke-width:2.2px"/><polygon points="510.75 146.33 510.75 165.33 525.08 152.67 510.75 146.33" style="fill:none;stroke:#4c545c;stroke-miterlimit:10;stroke-width:2.2px"/><polygon points="954.16 146.33 954.16 165.33 968.49 152.67 954.16 146.33" style="fill:none;stroke:#4c545c;stroke-miterlimit:10;stroke-width:2.2px"/><polygon points="1397.57 146.33 1397.57 165.33 1411.9 152.67 1397.57 146.33" style="fill:none;stroke:#4c545c;stroke-miterlimit:10;stroke-width:2.2px"/><polygon points="1840.98 146.33 1840.98 165.33 1855.31 152.67 1840.98 146.33" style="fill:none;stroke:#4c545c;stroke-miterlimit:10;stroke-width:2.2px"/><polygon points="67.33 555.17 67.33 574.17 81.67 561.5 67.33 555.17" style="fill:none;stroke:#4c545c;stroke-miterlimit:10;stroke-width:2.2px"/><polygon points="510.75 555.17 510.75 574.17 525.08 561.5 510.75 555.17" style="fill:none;stroke:#4c545c;stroke-miterlimit:10;stroke-width:2.2px"/><polygon points="954.16 555.17 954.16 574.17 968.49 561.5 954.16 555.17" style="fill:none;stroke:#4c545c;stroke-miterlimit:10;stroke-width:2.2px"/><polygon points="1397.57 555.17 1397.57 574.17 1411.9 561.5 1397.57 555.17" style="fill:none;stroke:#4c545c;stroke-miterlimit:10;stroke-width:2.2px"/><polygon points="1840.98 555.17 1840.98 574.17 1855.31 561.5 1840.98 555.17" style="fill:none;stroke:#4c545c;stroke-miterlimit:10;stroke-width:2.2px"/><polygon points="67.33 964 67.33 983 81.67 970.33 67.33 964" style="fill:none;stroke:#4c545c;stroke-miterlimit:10;stroke-width:2.2px"/><polygon points="510.75 964 510.75 983 525.08 970.33 510.75 964" style="fill:none;stroke:#4c545c;stroke-miterlimit:10;stroke-width:2.2px"/><polygon points="954.16 964 954.16 983 968.49 970.33 954.16 964" style="fill:none;stroke:#4c545c;stroke-miterlimit:10;stroke-width:2.2px"/><polygon points="1397.57 964 1397.57 983 1411.9 970.33 1397.57 964" style="fill:none;stroke:#4c545c;stroke-miterlimit:10;stroke-width:2.2px"/><polygon points="1840.98 964 1840.98 983 1855.31 970.33 1840.98 964" style="fill:none;stroke:#4c545c;stroke-miterlimit:10;stroke-width:2.2px"/><rect x="120.29" y="739.34" width="8.75" height="8.75" transform="translate(117.68 -10.34) rotate(8.99)" style="fill:#4c545c"/><rect x="563.79" y="739.34" width="8.75" height="8.75" transform="translate(123.12 -79.61) rotate(8.99)" style="fill:#4c545c"/><rect x="562.3" y="327.12" width="8.22" height="7.67" transform="translate(-47.02 98.45) rotate(-9.54)" style="fill:#4c545c"/><rect x="1003.75" y="329.15" width="8.22" height="7.67" transform="translate(-41.25 171.64) rotate(-9.54)" style="fill:#4c545c"/><rect x="1445.19" y="331.17" width="8.22" height="7.67" transform="translate(-35.48 244.83) rotate(-9.54)" style="fill:#4c545c"/><rect x="1886.63" y="333.19" width="8.22" height="7.67" transform="translate(-29.71 318.03) rotate(-9.54)" style="fill:#4c545c"/><rect x="119.05" y="327.12" width="8.22" height="7.67" transform="translate(-53.15 24.99) rotate(-9.54)" style="fill:#4c545c"/><rect x="562.3" y="737.85" width="8.22" height="7.67" transform="translate(-115.09 104.13) rotate(-9.54)" style="fill:#4c545c"/><rect x="1003.75" y="739.87" width="8.22" height="7.67" transform="translate(-109.32 177.32) rotate(-9.54)" style="fill:#4c545c"/><rect x="1445.19" y="741.9" width="8.22" height="7.67" transform="translate(-103.55 250.52) rotate(-9.54)" style="fill:#4c545c"/><rect x="1886.63" y="743.92" width="8.22" height="7.67" transform="translate(-97.78 323.71) rotate(-9.54)" style="fill:#4c545c"/><rect x="119.05" y="737.85" width="8.22" height="7.67" transform="translate(-121.22 30.67) rotate(-9.54)" style="fill:#4c545c"/><rect x="606.31" y="1000.7" width="8.22" height="7.67" transform="translate(-158.05 115.06) rotate(-9.54)" style="fill:#4c545c"/><rect x="1047.75" y="1002.72" width="8.22" height="7.67" transform="translate(-152.28 188.25) rotate(-9.54)" style="fill:#4c545c"/><rect x="1489.19" y="1004.75" width="8.22" height="7.67" transform="translate(-146.51 261.44) rotate(-9.54)" style="fill:#4c545c"/><rect x="163.06" y="1000.7" width="8.22" height="7.67" transform="translate(-164.18 41.6) rotate(-9.54)" style="fill:#4c545c"/><rect x="1007.29" y="739.34" width="8.75" height="8.75" transform="translate(128.57 -148.88) rotate(8.99)" style="fill:#4c545c"/><rect x="1450.79" y="739.34" width="8.75" height="8.75" transform="translate(134.01 -218.14) rotate(8.99)" style="fill:#4c545c"/><line x1="318.12" y1="96.4" x2="322.21" y2="117.1" style="fill:none;stroke:#4c545c;stroke-miterlimit:10;stroke-width:2.2px"/><line x1="760.49" y1="96.4" x2="764.57" y2="117.1" style="fill:none;stroke:#4c545c;stroke-miterlimit:10;stroke-width:2.2px"/><line x1="1202.85" y1="96.4" x2="1206.94" y2="117.1" style="fill:none;stroke:#4c545c;stroke-miterlimit:10;stroke-width:2.2px"/><line x1="1645.21" y1="96.4" x2="1649.3" y2="117.1" style="fill:none;stroke:#4c545c;stroke-miterlimit:10;stroke-width:2.2px"/><line x1="318.12" y1="509.29" x2="322.21" y2="529.99" style="fill:none;stroke:#4c545c;stroke-miterlimit:10;stroke-width:2.2px"/><line x1="760.49" y1="509.29" x2="764.57" y2="529.99" style="fill:none;stroke:#4c545c;stroke-miterlimit:10;stroke-width:2.2px"/><line x1="1202.85" y1="509.29" x2="1206.94" y2="529.99" style="fill:none;stroke:#4c545c;stroke-miterlimit:10;stroke-width:2.2px"/><line x1="1645.21" y1="509.29" x2="1649.3" y2="529.99" style="fill:none;stroke:#4c545c;stroke-miterlimit:10;stroke-width:2.2px"/><line x1="318.12" y1="914.07" x2="322.21" y2="934.77" style="fill:none;stroke:#4c545c;stroke-miterlimit:10;stroke-width:2.2px"/><line x1="760.49" y1="914.07" x2="764.57" y2="934.77" style="fill:none;stroke:#4c545c;stroke-miterlimit:10;stroke-width:2.2px"/><line x1="1202.85" y1="914.07" x2="1206.94" y2="934.77" style="fill:none;stroke:#4c545c;stroke-miterlimit:10;stroke-width:2.2px"/><line x1="1645.21" y1="914.07" x2="1649.3" y2="934.77" style="fill:none;stroke:#4c545c;stroke-miterlimit:10;stroke-width:2.2px"/><path d="M363.24,170.26a11.5,11.5,0,0,1,22.87-2.47" style="fill:none;stroke:#4c545c;stroke-miterlimit:10;stroke-width:2.2px"/><path d="M806.6,170.26a11.5,11.5,0,0,1,22.87-2.47" style="fill:none;stroke:#4c545c;stroke-miterlimit:10;stroke-width:2.2px"/><path d="M1250,170.26a11.5,11.5,0,1,1,22.87-2.47" style="fill:none;stroke:#4c545c;stroke-miterlimit:10;stroke-width:2.2px"/><path d="M1693.31,170.26a11.5,11.5,0,1,1,22.87-2.47" style="fill:none;stroke:#4c545c;stroke-miterlimit:10;stroke-width:2.2px"/><path d="M363.24,580.54a11.5,11.5,0,1,1,22.87-2.47" style="fill:none;stroke:#4c545c;stroke-miterlimit:10;stroke-width:2.2px"/><path d="M806.6,580.54a11.5,11.5,0,1,1,22.87-2.47" style="fill:none;stroke:#4c545c;stroke-miterlimit:10;stroke-width:2.2px"/><path d="M1250,580.54a11.5,11.5,0,1,1,22.87-2.47" style="fill:none;stroke:#4c545c;stroke-miterlimit:10;stroke-width:2.2px"/><path d="M1693.31,580.54a11.5,11.5,0,1,1,22.87-2.47" style="fill:none;stroke:#4c545c;stroke-miterlimit:10;stroke-width:2.2px"/><path d="M363.24,990.81a11.5,11.5,0,0,1,22.87-2.47" style="fill:none;stroke:#4c545c;stroke-miterlimit:10;stroke-width:2.2px"/><path d="M806.6,990.81a11.5,11.5,0,0,1,22.87-2.47" style="fill:none;stroke:#4c545c;stroke-miterlimit:10;stroke-width:2.2px"/><path d="M1250,990.81a11.5,11.5,0,1,1,22.87-2.47" style="fill:none;stroke:#4c545c;stroke-miterlimit:10;stroke-width:2.2px"/><path d="M1693.31,990.81a11.5,11.5,0,1,1,22.87-2.47" style="fill:none;stroke:#4c545c;stroke-miterlimit:10;stroke-width:2.2px"/><line x1="86.77" y1="238.39" x2="102.9" y2="224.61" style="fill:none;stroke:#4c545c;stroke-miterlimit:10;stroke-width:2.2px"/><line x1="531.51" y1="238.39" x2="547.64" y2="224.61" style="fill:none;stroke:#4c545c;stroke-miterlimit:10;stroke-width:2.2px"/><line x1="976.26" y1="238.39" x2="992.39" y2="224.61" style="fill:none;stroke:#4c545c;stroke-miterlimit:10;stroke-width:2.2px"/><line x1="1421" y1="238.39" x2="1437.13" y2="224.61" style="fill:none;stroke:#4c545c;stroke-miterlimit:10;stroke-width:2.2px"/><line x1="1865.74" y1="238.39" x2="1881.87" y2="224.61" style="fill:none;stroke:#4c545c;stroke-miterlimit:10;stroke-width:2.2px"/><line x1="86.77" y1="1058.5" x2="102.9" y2="1044.72" style="fill:none;stroke:#4c545c;stroke-miterlimit:10;stroke-width:2.2px"/><line x1="531.51" y1="1058.5" x2="547.64" y2="1044.72" style="fill:none;stroke:#4c545c;stroke-miterlimit:10;stroke-width:2.2px"/><line x1="976.26" y1="1058.5" x2="992.39" y2="1044.72" style="fill:none;stroke:#4c545c;stroke-miterlimit:10;stroke-width:2.2px"/><line x1="1421" y1="1058.5" x2="1437.13" y2="1044.72" style="fill:none;stroke:#4c545c;stroke-miterlimit:10;stroke-width:2.2px"/><line x1="1865.74" y1="1058.5" x2="1881.87" y2="1044.72" style="fill:none;stroke:#4c545c;stroke-miterlimit:10;stroke-width:2.2px"/><line x1="86.77" y1="650.75" x2="102.9" y2="636.97" style="fill:none;stroke:#4c545c;stroke-miterlimit:10;stroke-width:2.2px"/><line x1="531.51" y1="650.75" x2="547.64" y2="636.97" style="fill:none;stroke:#4c545c;stroke-miterlimit:10;stroke-width:2.2px"/><line x1="976.26" y1="650.75" x2="992.39" y2="636.97" style="fill:none;stroke:#4c545c;stroke-miterlimit:10;stroke-width:2.2px"/><line x1="1421" y1="650.75" x2="1437.13" y2="636.97" style="fill:none;stroke:#4c545c;stroke-miterlimit:10;stroke-width:2.2px"/><line x1="1865.74" y1="650.75" x2="1881.87" y2="636.97" style="fill:none;stroke:#4c545c;stroke-miterlimit:10;stroke-width:2.2px"/><polyline points="165.21 261 180.17 261 180.17 246.41" style="fill:none;stroke:#4c545c;stroke-miterlimit:10;stroke-width:2.2px"/><polyline points="607.79 261 622.74 261 622.74 246.41" style="fill:none;stroke:#4c545c;stroke-miterlimit:10;stroke-width:2.2px"/><polyline points="1050.36 261 1065.32 261 1065.32 246.41" style="fill:none;stroke:#4c545c;stroke-miterlimit:10;stroke-width:2.2px"/><polyline points="1492.94 261 1507.9 261 1507.9 246.41" style="fill:none;stroke:#4c545c;stroke-miterlimit:10;stroke-width:2.2px"/><polyline points="165.21 665.59 180.17 665.59 180.17 650.99" style="fill:none;stroke:#4c545c;stroke-miterlimit:10;stroke-width:2.2px"/><polyline points="607.79 665.59 622.74 665.59 622.74 650.99" style="fill:none;stroke:#4c545c;stroke-miterlimit:10;stroke-width:2.2px"/><polyline points="1050.36 665.59 1065.32 665.59 1065.32 650.99" style="fill:none;stroke:#4c545c;stroke-miterlimit:10;stroke-width:2.2px"/><polyline points="1492.94 665.59 1507.9 665.59 1507.9 650.99" style="fill:none;stroke:#4c545c;stroke-miterlimit:10;stroke-width:2.2px"/><polygon points="1699.67 246.41 1704.29 244.88 1703.17 253 1705.92 252 1701.67 266 1701.54 255.44 1698.92 256.63 1699.67 246.41" style="fill:#4c545c"/><polygon points="1257 246.41 1261.63 244.88 1260.5 253 1263.25 252 1259 266 1258.88 255.44 1256.25 256.63 1257 246.41" style="fill:#4c545c"/><polygon points="814.33 246.41 818.96 244.88 817.83 253 820.58 252 816.33 266 816.21 255.44 813.58 256.63 814.33 246.41" style="fill:#4c545c"/><polygon points="371.67 246.41 376.29 244.88 375.17 253 377.92 252 373.67 266 373.54 255.44 370.92 256.63 371.67 246.41" style="fill:#4c545c"/><polygon points="1699.67 656.26 1704.29 654.73 1703.17 662.85 1705.92 661.85 1701.67 675.85 1701.54 665.29 1698.92 666.48 1699.67 656.26" style="fill:#4c545c"/><polygon points="1257 656.26 1261.63 654.73 1260.5 662.85 1263.25 661.85 1259 675.85 1258.88 665.29 1256.25 666.48 1257 656.26" style="fill:#4c545c"/><polygon points="814.33 656.26 818.96 654.73 817.83 662.85 820.58 661.85 816.33 675.85 816.21 665.29 813.58 666.48 814.33 656.26" style="fill:#4c545c"/><polygon points="371.67 656.26 376.29 654.73 375.17 662.85 377.92 661.85 373.67 675.85 373.54 665.29 370.92 666.48 371.67 656.26" style="fill:#4c545c"/><polygon points="1699.67 1066.11 1704.29 1064.58 1703.17 1072.7 1705.92 1071.7 1701.67 1085.7 1701.54 1075.14 1698.92 1076.33 1699.67 1066.11" style="fill:#4c545c"/><polygon points="1257 1066.11 1261.63 1064.58 1260.5 1072.7 1263.25 1071.7 1259 1085.7 1258.88 1075.14 1256.25 1076.33 1257 1066.11" style="fill:#4c545c"/><polygon points="814.33 1066.11 818.96 1064.58 817.83 1072.7 820.58 1071.7 816.33 1085.7 816.21 1075.14 813.58 1076.33 814.33 1066.11" style="fill:#4c545c"/><polygon points="371.67 1066.11 376.29 1064.58 375.17 1072.7 377.92 1071.7 373.67 1085.7 373.54 1075.14 370.92 1076.33 371.67 1066.11" style="fill:#4c545c"/><polygon points="282.67 175.67 287.67 182.54 292.33 174 282.67 175.67" style="fill:#4c545c"/><polygon points="285.72 1002.05 293.18 999.18 286.55 992.87 285.72 1002.05" style="fill:#4c545c"/><polygon points="728.86 1002.05 736.32 999.18 729.69 992.87 728.86 1002.05" style="fill:#4c545c"/><polygon points="1172 1002.05 1179.45 999.18 1172.83 992.87 1172 1002.05" style="fill:#4c545c"/><polygon points="1615.14 1002.05 1622.6 999.18 1615.97 992.87 1615.14 1002.05" style="fill:#4c545c"/><polygon points="724.21 175.67 729.21 182.54 733.87 174 724.21 175.67" style="fill:#4c545c"/><polygon points="1165.75 175.67 1170.75 182.54 1175.41 174 1165.75 175.67" style="fill:#4c545c"/><polygon points="1607.29 175.67 1612.29 182.54 1616.95 174 1607.29 175.67" style="fill:#4c545c"/><polygon points="282.67 586.18 287.67 593.06 292.33 584.51 282.67 586.18" style="fill:#4c545c"/><polygon points="724.21 586.18 729.21 593.06 733.87 584.51 724.21 586.18" style="fill:#4c545c"/><polygon points="1165.75 586.18 1170.75 593.06 1175.41 584.51 1165.75 586.18" style="fill:#4c545c"/><polygon points="1607.29 586.18 1612.29 593.06 1616.95 584.51 1607.29 586.18" style="fill:#4c545c"/><polygon points="232.75 694.54 237.75 701.41 242.42 692.87 232.75 694.54" style="fill:#4c545c"/><polygon points="674.29 694.54 679.29 701.41 683.96 692.87 674.29 694.54" style="fill:#4c545c"/><polygon points="1115.83 694.54 1120.83 701.41 1125.5 692.87 1115.83 694.54" style="fill:#4c545c"/><polygon points="1557.37 694.54 1562.37 701.41 1567.04 692.87 1557.37 694.54" style="fill:#4c545c"/><polygon points="217.94 352.5 225.8 365.5 232.96 352.5 217.94 352.5" style="fill:none;stroke:#4c545c;stroke-miterlimit:10;stroke-width:2.2px"/><polygon points="660.73 352.5 668.59 365.5 675.75 352.5 660.73 352.5" style="fill:none;stroke:#4c545c;stroke-miterlimit:10;stroke-width:2.2px"/><polygon points="1103.52 352.5 1111.38 365.5 1118.54 352.5 1103.52 352.5" style="fill:none;stroke:#4c545c;stroke-miterlimit:10;stroke-width:2.2px"/><polygon points="1546.3 352.5 1554.16 365.5 1561.32 352.5 1546.3 352.5" style="fill:none;stroke:#4c545c;stroke-miterlimit:10;stroke-width:2.2px"/><polygon points="217.94 760.17 225.8 773.17 232.96 760.17 217.94 760.17" style="fill:none;stroke:#4c545c;stroke-miterlimit:10;stroke-width:2.2px"/><polygon points="660.73 760.17 668.59 773.17 675.75 760.17 660.73 760.17" style="fill:none;stroke:#4c545c;stroke-miterlimit:10;stroke-width:2.2px"/><polygon points="1103.52 760.17 1111.38 773.17 1118.54 760.17 1103.52 760.17" style="fill:none;stroke:#4c545c;stroke-miterlimit:10;stroke-width:2.2px"/><polygon points="1546.3 760.17 1554.16 773.17 1561.32 760.17 1546.3 760.17" style="fill:none;stroke:#4c545c;stroke-miterlimit:10;stroke-width:2.2px"/><line x1="180.17" y1="1064.58" x2="180.17" y2="1080" style="fill:none;stroke:#4c545c;stroke-miterlimit:10"/><line x1="624" y1="1064.58" x2="624" y2="1080" style="fill:none;stroke:#4c545c;stroke-miterlimit:10"/><line x1="1067.83" y1="1064.58" x2="1067.83" y2="1080" style="fill:none;stroke:#4c545c;stroke-miterlimit:10"/><line x1="1511.67" y1="1064.58" x2="1511.67" y2="1080" style="fill:none;stroke:#4c545c;stroke-miterlimit:10"/><line x1="58.46" y1="1.29" x2="58.46" y2="16.71" style="fill:none;stroke:#4c545c;stroke-miterlimit:10"/><line x1="502.29" y1="1.29" x2="502.29" y2="16.71" style="fill:none;stroke:#4c545c;stroke-miterlimit:10"/><line x1="946.12" y1="1.29" x2="946.12" y2="16.71" style="fill:none;stroke:#4c545c;stroke-miterlimit:10"/><line x1="1386.67" x2="1386.67" y2="15.42" style="fill:none;stroke:#4c545c;stroke-miterlimit:10"/><line x1="1829.17" y1="1.29" x2="1829.17" y2="16.71" style="fill:none;stroke:#4c545c;stroke-miterlimit:10"/><line x1="58.46" y1="813.58" x2="58.46" y2="829" style="fill:none;stroke:#4c545c;stroke-miterlimit:10"/><line x1="502.29" y1="813.58" x2="502.29" y2="829" style="fill:none;stroke:#4c545c;stroke-miterlimit:10"/><line x1="946.12" y1="813.58" x2="946.12" y2="829" style="fill:none;stroke:#4c545c;stroke-miterlimit:10"/><line x1="1386.67" y1="812.29" x2="1386.67" y2="827.71" style="fill:none;stroke:#4c545c;stroke-miterlimit:10"/><line x1="1829.17" y1="813.58" x2="1829.17" y2="829" style="fill:none;stroke:#4c545c;stroke-miterlimit:10"/><circle cx="353" cy="357" r="7.33" style="fill:none;stroke:#4c545c;stroke-miterlimit:10;stroke-width:2.2px"/><circle cx="793.13" cy="357" r="7.33" style="fill:none;stroke:#4c545c;stroke-miterlimit:10;stroke-width:2.2px"/><circle cx="1233.27" cy="357" r="7.33" style="fill:none;stroke:#4c545c;stroke-miterlimit:10;stroke-width:2.2px"/><circle cx="1673.4" cy="357" r="7.33" style="fill:none;stroke:#4c545c;stroke-miterlimit:10;stroke-width:2.2px"/><circle cx="353" cy="765.36" r="7.33" style="fill:none;stroke:#4c545c;stroke-miterlimit:10;stroke-width:2.2px"/><circle cx="793.13" cy="765.36" r="7.33" style="fill:none;stroke:#4c545c;stroke-miterlimit:10;stroke-width:2.2px"/><circle cx="1233.27" cy="765.36" r="7.33" style="fill:none;stroke:#4c545c;stroke-miterlimit:10;stroke-width:2.2px"/><circle cx="1673.4" cy="765.36" r="7.33" style="fill:none;stroke:#4c545c;stroke-miterlimit:10;stroke-width:2.2px"/></svg>