<svg id="Layer_2" data-name="Layer 2" xmlns="http://www.w3.org/2000/svg" viewBox="0 0 1080 1920"><title>BG-04</title><rect x="-420" y="420" width="1920" height="1080" transform="translate(-420 1500) rotate(-90)" style="fill:#353f47"/><polygon points="16.5 1578.08 37.5 1590.33 37.5 1578.08 16.5 1578.08" style="fill:none;stroke:#4c545c;stroke-miterlimit:10;stroke-width:2.2px"/><polygon points="16.5 1134.2 37.5 1146.45 37.5 1134.2 16.5 1134.2" style="fill:none;stroke:#4c545c;stroke-miterlimit:10;stroke-width:2.2px"/><polygon points="16.5 690.32 37.5 702.57 37.5 690.32 16.5 690.32" style="fill:none;stroke:#4c545c;stroke-miterlimit:10;stroke-width:2.2px"/><polygon points="16.5 246.43 37.5 258.68 37.5 246.43 16.5 246.43" style="fill:none;stroke:#4c545c;stroke-miterlimit:10;stroke-width:2.2px"/><polygon points="427.83 1578.08 448.83 1590.33 448.83 1578.08 427.83 1578.08" style="fill:none;stroke:#4c545c;stroke-miterlimit:10;stroke-width:2.2px"/><polygon points="427.83 1134.2 448.83 1146.45 448.83 1134.2 427.83 1134.2" style="fill:none;stroke:#4c545c;stroke-miterlimit:10;stroke-width:2.2px"/><polygon points="427.83 690.32 448.83 702.57 448.83 690.32 427.83 690.32" style="fill:none;stroke:#4c545c;stroke-miterlimit:10;stroke-width:2.2px"/><polygon points="427.83 246.43 448.83 258.68 448.83 246.43 427.83 246.43" style="fill:none;stroke:#4c545c;stroke-miterlimit:10;stroke-width:2.2px"/><polygon points="838.5 1578.08 859.5 1590.33 859.5 1578.08 838.5 1578.08" style="fill:none;stroke:#4c545c;stroke-miterlimit:10;stroke-width:2.2px"/><polygon points="838.5 1134.2 859.5 1146.45 859.5 1134.2 838.5 1134.2" style="fill:none;stroke:#4c545c;stroke-miterlimit:10;stroke-width:2.2px"/><polygon points="838.5 690.32 859.5 702.57 859.5 690.32 838.5 690.32" style="fill:none;stroke:#4c545c;stroke-miterlimit:10;stroke-width:2.2px"/><polygon points="838.5 246.43 859.5 258.68 859.5 246.43 838.5 246.43" style="fill:none;stroke:#4c545c;stroke-miterlimit:10;stroke-width:2.2px"/><circle cx="19" cy="1794.17" r="10" style="fill:none;stroke:#4c545c;stroke-miterlimit:10;stroke-width:2.2px"/><circle cx="19" cy="1350.5" r="10" style="fill:none;stroke:#4c545c;stroke-miterlimit:10;stroke-width:2.2px"/><circle cx="19" cy="906.83" r="10" style="fill:none;stroke:#4c545c;stroke-miterlimit:10;stroke-width:2.2px"/><circle cx="19" cy="463.17" r="10" style="fill:none;stroke:#4c545c;stroke-miterlimit:10;stroke-width:2.2px"/><circle cx="19" cy="19.5" r="10" style="fill:none;stroke:#4c545c;stroke-miterlimit:10;stroke-width:2.2px"/><circle cx="428.33" cy="1794.17" r="10" style="fill:none;stroke:#4c545c;stroke-miterlimit:10;stroke-width:2.2px"/><circle cx="428.33" cy="1350.5" r="10" style="fill:none;stroke:#4c545c;stroke-miterlimit:10;stroke-width:2.2px"/><circle cx="428.33" cy="906.83" r="10" style="fill:none;stroke:#4c545c;stroke-miterlimit:10;stroke-width:2.2px"/><circle cx="428.33" cy="463.17" r="10" style="fill:none;stroke:#4c545c;stroke-miterlimit:10;stroke-width:2.2px"/><circle cx="428.33" cy="19.5" r="10" style="fill:none;stroke:#4c545c;stroke-miterlimit:10;stroke-width:2.2px"/><circle cx="839" cy="1794.17" r="10" style="fill:none;stroke:#4c545c;stroke-miterlimit:10;stroke-width:2.2px"/><circle cx="839" cy="1350.5" r="10" style="fill:none;stroke:#4c545c;stroke-miterlimit:10;stroke-width:2.2px"/><circle cx="839" cy="906.83" r="10" style="fill:none;stroke:#4c545c;stroke-miterlimit:10;stroke-width:2.2px"/><circle cx="839" cy="463.17" r="10" style="fill:none;stroke:#4c545c;stroke-miterlimit:10;stroke-width:2.2px"/><circle cx="839" cy="19.5" r="10" style="fill:none;stroke:#4c545c;stroke-miterlimit:10;stroke-width:2.2px"/><polygon points="255.68 1633.43 247.97 1639.68 238.7 1636.12 237.14 1626.32 244.85 1620.07 254.12 1623.63 255.68 1633.43" style="fill:none;stroke:#4c545c;stroke-miterlimit:10;stroke-width:2.2px"/><polygon points="255.68 1189.68 247.97 1195.93 238.7 1192.38 237.14 1182.57 244.85 1176.33 254.12 1179.88 255.68 1189.68" style="fill:none;stroke:#4c545c;stroke-miterlimit:10;stroke-width:2.2px"/><polygon points="255.68 745.93 247.97 752.18 238.7 748.63 237.14 738.83 244.85 732.58 254.12 736.13 255.68 745.93" style="fill:none;stroke:#4c545c;stroke-miterlimit:10;stroke-width:2.2px"/><polygon points="255.68 302.18 247.97 308.43 238.7 304.88 237.14 295.08 244.85 288.83 254.12 292.38 255.68 302.18" style="fill:none;stroke:#4c545c;stroke-miterlimit:10;stroke-width:2.2px"/><polygon points="1075.45 1633.43 1067.74 1639.68 1058.47 1636.12 1056.91 1626.32 1064.63 1620.07 1073.89 1623.63 1075.45 1633.43" style="fill:none;stroke:#4c545c;stroke-miterlimit:10;stroke-width:2.2px"/><polygon points="1075.45 1189.68 1067.74 1195.93 1058.47 1192.38 1056.91 1182.57 1064.63 1176.33 1073.89 1179.88 1075.45 1189.68" style="fill:none;stroke:#4c545c;stroke-miterlimit:10;stroke-width:2.2px"/><polygon points="1075.45 745.93 1067.74 752.18 1058.47 748.63 1056.91 738.83 1064.63 732.58 1073.89 736.13 1075.45 745.93" style="fill:none;stroke:#4c545c;stroke-miterlimit:10;stroke-width:2.2px"/><polygon points="1075.45 302.18 1067.74 308.43 1058.47 304.88 1056.91 295.08 1064.63 288.83 1073.89 292.38 1075.45 302.18" style="fill:none;stroke:#4c545c;stroke-miterlimit:10;stroke-width:2.2px"/><polygon points="667.56 1633.43 659.85 1639.68 650.58 1636.12 649.02 1626.32 656.73 1620.07 666 1623.63 667.56 1633.43" style="fill:none;stroke:#4c545c;stroke-miterlimit:10;stroke-width:2.2px"/><polygon points="667.56 1189.68 659.85 1195.93 650.58 1192.38 649.02 1182.57 656.73 1176.33 666 1179.88 667.56 1189.68" style="fill:none;stroke:#4c545c;stroke-miterlimit:10;stroke-width:2.2px"/><polygon points="667.56 745.93 659.85 752.18 650.58 748.63 649.02 738.83 656.73 732.58 666 736.13 667.56 745.93" style="fill:none;stroke:#4c545c;stroke-miterlimit:10;stroke-width:2.2px"/><polygon points="667.56 302.18 659.85 308.43 650.58 304.88 649.02 295.08 656.73 288.83 666 292.38 667.56 302.18" style="fill:none;stroke:#4c545c;stroke-miterlimit:10;stroke-width:2.2px"/><rect x="57.95" y="1895.79" width="13.34" height="13.34" transform="translate(-1462.78 3038.49) rotate(-124.7)" style="fill:none;stroke:#4c545c;stroke-miterlimit:10;stroke-width:2.2px"/><rect x="57.95" y="1452.12" width="13.34" height="13.34" transform="translate(-1098 2342.28) rotate(-124.7)" style="fill:none;stroke:#4c545c;stroke-miterlimit:10;stroke-width:2.2px"/><rect x="57.95" y="1008.45" width="13.34" height="13.34" transform="translate(-733.22 1646.08) rotate(-124.7)" style="fill:none;stroke:#4c545c;stroke-miterlimit:10;stroke-width:2.2px"/><rect x="57.95" y="564.79" width="13.34" height="13.34" transform="translate(-368.44 949.87) rotate(-124.7)" style="fill:none;stroke:#4c545c;stroke-miterlimit:10;stroke-width:2.2px"/><rect x="57.95" y="121.12" width="13.34" height="13.34" transform="matrix(-0.57, -0.82, 0.82, -0.57, -3.66, 253.67)" style="fill:none;stroke:#4c545c;stroke-miterlimit:10;stroke-width:2.2px"/><rect x="468.16" y="1896.66" width="13.34" height="13.34" transform="translate(-819.79 3377.13) rotate(-124.7)" style="fill:none;stroke:#4c545c;stroke-miterlimit:10;stroke-width:2.2px"/><rect x="468.16" y="1452.99" width="13.34" height="13.34" transform="translate(-455.01 2680.93) rotate(-124.7)" style="fill:none;stroke:#4c545c;stroke-miterlimit:10;stroke-width:2.2px"/><rect x="468.16" y="1009.33" width="13.34" height="13.34" transform="translate(-90.23 1984.72) rotate(-124.7)" style="fill:none;stroke:#4c545c;stroke-miterlimit:10;stroke-width:2.2px"/><rect x="468.16" y="565.66" width="13.34" height="13.34" transform="translate(274.55 1288.52) rotate(-124.7)" style="fill:none;stroke:#4c545c;stroke-miterlimit:10;stroke-width:2.2px"/><rect x="468.16" y="121.99" width="13.34" height="13.34" transform="translate(639.32 592.31) rotate(-124.7)" style="fill:none;stroke:#4c545c;stroke-miterlimit:10;stroke-width:2.2px"/><line x1="39.75" y1="1710.33" x2="49.5" y2="1695.58" style="fill:none;stroke:#4c545c;stroke-miterlimit:10;stroke-width:2.2px"/><line x1="39.75" y1="1266.51" x2="49.5" y2="1251.76" style="fill:none;stroke:#4c545c;stroke-miterlimit:10;stroke-width:2.2px"/><line x1="39.75" y1="822.69" x2="49.5" y2="807.94" style="fill:none;stroke:#4c545c;stroke-miterlimit:10;stroke-width:2.2px"/><line x1="39.75" y1="378.87" x2="49.5" y2="364.12" style="fill:none;stroke:#4c545c;stroke-miterlimit:10;stroke-width:2.2px"/><line x1="316.3" y1="1604.93" x2="326.05" y2="1590.18" style="fill:none;stroke:#4c545c;stroke-miterlimit:10;stroke-width:2.2px"/><line x1="316.3" y1="1161.1" x2="326.05" y2="1146.35" style="fill:none;stroke:#4c545c;stroke-miterlimit:10;stroke-width:2.2px"/><line x1="316.3" y1="717.28" x2="326.05" y2="702.53" style="fill:none;stroke:#4c545c;stroke-miterlimit:10;stroke-width:2.2px"/><line x1="316.3" y1="273.46" x2="326.05" y2="258.71" style="fill:none;stroke:#4c545c;stroke-miterlimit:10;stroke-width:2.2px"/><line x1="450.69" y1="1710.33" x2="460.44" y2="1695.58" style="fill:none;stroke:#4c545c;stroke-miterlimit:10;stroke-width:2.2px"/><line x1="450.69" y1="1266.51" x2="460.44" y2="1251.76" style="fill:none;stroke:#4c545c;stroke-miterlimit:10;stroke-width:2.2px"/><line x1="450.69" y1="822.69" x2="460.44" y2="807.94" style="fill:none;stroke:#4c545c;stroke-miterlimit:10;stroke-width:2.2px"/><line x1="450.69" y1="378.87" x2="460.44" y2="364.12" style="fill:none;stroke:#4c545c;stroke-miterlimit:10;stroke-width:2.2px"/><line x1="726.73" y1="1601.49" x2="736.48" y2="1586.74" style="fill:none;stroke:#4c545c;stroke-miterlimit:10;stroke-width:2.2px"/><line x1="726.73" y1="1157.67" x2="736.48" y2="1142.92" style="fill:none;stroke:#4c545c;stroke-miterlimit:10;stroke-width:2.2px"/><line x1="726.73" y1="713.85" x2="736.48" y2="699.1" style="fill:none;stroke:#4c545c;stroke-miterlimit:10;stroke-width:2.2px"/><line x1="726.73" y1="270.03" x2="736.48" y2="255.28" style="fill:none;stroke:#4c545c;stroke-miterlimit:10;stroke-width:2.2px"/><rect x="274.46" y="1867.82" width="10.25" height="22.95" transform="translate(-1527.39 2466.48) rotate(-99.54)" style="fill:none;stroke:#4c545c;stroke-miterlimit:10;stroke-width:2.2px"/><rect x="274.46" y="1424.15" width="10.25" height="22.95" transform="translate(-1089.85 1949.28) rotate(-99.54)" style="fill:none;stroke:#4c545c;stroke-miterlimit:10;stroke-width:2.2px"/><rect x="274.46" y="980.48" width="10.25" height="22.95" transform="translate(-652.32 1432.08) rotate(-99.54)" style="fill:none;stroke:#4c545c;stroke-miterlimit:10;stroke-width:2.2px"/><rect x="274.46" y="536.82" width="10.25" height="22.95" transform="translate(-214.79 914.88) rotate(-99.54)" style="fill:none;stroke:#4c545c;stroke-miterlimit:10;stroke-width:2.2px"/><rect x="274.46" y="93.15" width="10.25" height="22.95" transform="translate(222.74 397.68) rotate(-99.54)" style="fill:none;stroke:#4c545c;stroke-miterlimit:10;stroke-width:2.2px"/><rect x="686.87" y="1867.82" width="10.25" height="22.95" transform="translate(-1046.61 2873.19) rotate(-99.54)" style="fill:none;stroke:#4c545c;stroke-miterlimit:10;stroke-width:2.2px"/><rect x="686.87" y="1424.15" width="10.25" height="22.95" transform="translate(-609.08 2355.99) rotate(-99.54)" style="fill:none;stroke:#4c545c;stroke-miterlimit:10;stroke-width:2.2px"/><rect x="686.87" y="980.48" width="10.25" height="22.95" transform="translate(-171.55 1838.79) rotate(-99.54)" style="fill:none;stroke:#4c545c;stroke-miterlimit:10;stroke-width:2.2px"/><rect x="686.87" y="536.82" width="10.25" height="22.95" transform="translate(265.98 1321.6) rotate(-99.54)" style="fill:none;stroke:#4c545c;stroke-miterlimit:10;stroke-width:2.2px"/><rect x="686.87" y="93.15" width="10.25" height="22.95" transform="translate(703.51 804.4) rotate(-99.54)" style="fill:none;stroke:#4c545c;stroke-miterlimit:10;stroke-width:2.2px"/><circle cx="92" cy="1779.67" r="4.5" style="fill:#4c545c"/><circle cx="92" cy="1337.67" r="4.5" style="fill:#4c545c"/><circle cx="92" cy="894.67" r="4.5" style="fill:#4c545c"/><circle cx="92" cy="453.67" r="4.5" style="fill:#4c545c"/><circle cx="92" cy="11.67" r="4.5" style="fill:#4c545c"/><circle cx="777.63" cy="1465.1" r="4.5" style="fill:#4c545c"/><circle cx="777.63" cy="1908.2" r="4.5" style="fill:#4c545c"/><circle cx="777.63" cy="1023.1" r="4.5" style="fill:#4c545c"/><circle cx="777.63" cy="580.1" r="4.5" style="fill:#4c545c"/><circle cx="777.63" cy="139.1" r="4.5" style="fill:#4c545c"/><polygon points="124.5 1686.33 138 1692.71 126.36 1702.06 113.63 1695.15 124.5 1686.33" style="fill:none;stroke:#4c545c;stroke-miterlimit:10;stroke-width:2.2px"/><polygon points="124.5 1243.9 138 1250.27 126.36 1259.63 113.63 1252.71 124.5 1243.9" style="fill:none;stroke:#4c545c;stroke-miterlimit:10;stroke-width:2.2px"/><polygon points="124.5 801.46 138 807.84 126.36 817.19 113.63 810.28 124.5 801.46" style="fill:none;stroke:#4c545c;stroke-miterlimit:10;stroke-width:2.2px"/><polygon points="124.5 359.03 138 365.4 126.36 374.76 113.63 367.84 124.5 359.03" style="fill:none;stroke:#4c545c;stroke-miterlimit:10;stroke-width:2.2px"/><polygon points="536.13 1686.33 549.63 1692.71 538 1702.06 525.26 1695.15 536.13 1686.33" style="fill:none;stroke:#4c545c;stroke-miterlimit:10;stroke-width:2.2px"/><polygon points="536.13 1243.9 549.63 1250.27 538 1259.63 525.26 1252.71 536.13 1243.9" style="fill:none;stroke:#4c545c;stroke-miterlimit:10;stroke-width:2.2px"/><polygon points="536.13 801.46 549.63 807.84 538 817.19 525.26 810.28 536.13 801.46" style="fill:none;stroke:#4c545c;stroke-miterlimit:10;stroke-width:2.2px"/><polygon points="536.13 359.03 549.63 365.4 538 374.76 525.26 367.84 536.13 359.03" style="fill:none;stroke:#4c545c;stroke-miterlimit:10;stroke-width:2.2px"/><polygon points="945.93 1686.33 959.43 1692.71 947.8 1702.06 935.06 1695.15 945.93 1686.33" style="fill:none;stroke:#4c545c;stroke-miterlimit:10;stroke-width:2.2px"/><polygon points="945.93 1243.9 959.43 1250.27 947.8 1259.63 935.06 1252.71 945.93 1243.9" style="fill:none;stroke:#4c545c;stroke-miterlimit:10;stroke-width:2.2px"/><polygon points="945.93 801.46 959.43 807.84 947.8 817.19 935.06 810.28 945.93 801.46" style="fill:none;stroke:#4c545c;stroke-miterlimit:10;stroke-width:2.2px"/><polygon points="945.93 359.03 959.43 365.4 947.8 374.76 935.06 367.84 945.93 359.03" style="fill:none;stroke:#4c545c;stroke-miterlimit:10;stroke-width:2.2px"/><line x1="128.85" y1="1481" x2="127.65" y2="1466.4" style="fill:none;stroke:#4c545c;stroke-miterlimit:10;stroke-width:2.2px"/><line x1="128.85" y1="1034.7" x2="127.65" y2="1020.1" style="fill:none;stroke:#4c545c;stroke-miterlimit:10;stroke-width:2.2px"/><line x1="128.85" y1="588.4" x2="127.65" y2="573.8" style="fill:none;stroke:#4c545c;stroke-miterlimit:10;stroke-width:2.2px"/><line x1="128.85" y1="142.1" x2="127.65" y2="127.51" style="fill:none;stroke:#4c545c;stroke-miterlimit:10;stroke-width:2.2px"/><line x1="128.85" y1="1927.3" x2="127.65" y2="1912.7" style="fill:none;stroke:#4c545c;stroke-miterlimit:10;stroke-width:2.2px"/><line x1="540.6" y1="1481" x2="539.4" y2="1466.4" style="fill:none;stroke:#4c545c;stroke-miterlimit:10;stroke-width:2.2px"/><line x1="540.6" y1="1034.7" x2="539.4" y2="1020.1" style="fill:none;stroke:#4c545c;stroke-miterlimit:10;stroke-width:2.2px"/><line x1="540.6" y1="588.4" x2="539.4" y2="573.8" style="fill:none;stroke:#4c545c;stroke-miterlimit:10;stroke-width:2.2px"/><line x1="540.6" y1="142.1" x2="539.4" y2="127.51" style="fill:none;stroke:#4c545c;stroke-miterlimit:10;stroke-width:2.2px"/><line x1="540.6" y1="1927.3" x2="539.4" y2="1912.7" style="fill:none;stroke:#4c545c;stroke-miterlimit:10;stroke-width:2.2px"/><line x1="948.45" y1="1481" x2="947.24" y2="1466.4" style="fill:none;stroke:#4c545c;stroke-miterlimit:10;stroke-width:2.2px"/><line x1="948.45" y1="1034.7" x2="947.24" y2="1020.1" style="fill:none;stroke:#4c545c;stroke-miterlimit:10;stroke-width:2.2px"/><line x1="948.45" y1="588.4" x2="947.24" y2="573.8" style="fill:none;stroke:#4c545c;stroke-miterlimit:10;stroke-width:2.2px"/><line x1="948.45" y1="142.1" x2="947.24" y2="127.51" style="fill:none;stroke:#4c545c;stroke-miterlimit:10;stroke-width:2.2px"/><line x1="948.45" y1="1927.3" x2="947.24" y2="1912.7" style="fill:none;stroke:#4c545c;stroke-miterlimit:10;stroke-width:2.2px"/><line x1="407.5" y1="1860.83" x2="418.33" y2="1860.83" style="fill:none;stroke:#4c545c;stroke-miterlimit:10;stroke-width:2.2px"/><line x1="407.5" y1="1418.33" x2="418.33" y2="1418.33" style="fill:none;stroke:#4c545c;stroke-miterlimit:10;stroke-width:2.2px"/><line x1="407.5" y1="975.83" x2="418.33" y2="975.83" style="fill:none;stroke:#4c545c;stroke-miterlimit:10;stroke-width:2.2px"/><line x1="407.5" y1="533.33" x2="418.33" y2="533.33" style="fill:none;stroke:#4c545c;stroke-miterlimit:10;stroke-width:2.2px"/><line x1="407.5" y1="90.83" x2="418.33" y2="90.83" style="fill:none;stroke:#4c545c;stroke-miterlimit:10;stroke-width:2.2px"/><polygon points="146.33 1852.67 165.33 1852.67 152.67 1838.33 146.33 1852.67" style="fill:none;stroke:#4c545c;stroke-miterlimit:10;stroke-width:2.2px"/><polygon points="146.33 1409.26 165.33 1409.26 152.67 1394.92 146.33 1409.26" style="fill:none;stroke:#4c545c;stroke-miterlimit:10;stroke-width:2.2px"/><polygon points="146.33 965.84 165.33 965.84 152.67 951.51 146.33 965.84" style="fill:none;stroke:#4c545c;stroke-miterlimit:10;stroke-width:2.2px"/><polygon points="146.33 522.43 165.33 522.43 152.67 508.1 146.33 522.43" style="fill:none;stroke:#4c545c;stroke-miterlimit:10;stroke-width:2.2px"/><polygon points="146.33 79.02 165.33 79.02 152.67 64.69 146.33 79.02" style="fill:none;stroke:#4c545c;stroke-miterlimit:10;stroke-width:2.2px"/><polygon points="555.17 1852.67 574.17 1852.67 561.5 1838.33 555.17 1852.67" style="fill:none;stroke:#4c545c;stroke-miterlimit:10;stroke-width:2.2px"/><polygon points="555.17 1409.26 574.17 1409.26 561.5 1394.92 555.17 1409.26" style="fill:none;stroke:#4c545c;stroke-miterlimit:10;stroke-width:2.2px"/><polygon points="555.17 965.84 574.17 965.84 561.5 951.51 555.17 965.84" style="fill:none;stroke:#4c545c;stroke-miterlimit:10;stroke-width:2.2px"/><polygon points="555.17 522.43 574.17 522.43 561.5 508.1 555.17 522.43" style="fill:none;stroke:#4c545c;stroke-miterlimit:10;stroke-width:2.2px"/><polygon points="555.17 79.02 574.17 79.02 561.5 64.69 555.17 79.02" style="fill:none;stroke:#4c545c;stroke-miterlimit:10;stroke-width:2.2px"/><polygon points="964 1852.67 983 1852.67 970.33 1838.33 964 1852.67" style="fill:none;stroke:#4c545c;stroke-miterlimit:10;stroke-width:2.2px"/><polygon points="964 1409.26 983 1409.26 970.33 1394.92 964 1409.26" style="fill:none;stroke:#4c545c;stroke-miterlimit:10;stroke-width:2.2px"/><polygon points="964 965.84 983 965.84 970.33 951.51 964 965.84" style="fill:none;stroke:#4c545c;stroke-miterlimit:10;stroke-width:2.2px"/><polygon points="964 522.43 983 522.43 970.33 508.1 964 522.43" style="fill:none;stroke:#4c545c;stroke-miterlimit:10;stroke-width:2.2px"/><polygon points="964 79.02 983 79.02 970.33 64.69 964 79.02" style="fill:none;stroke:#4c545c;stroke-miterlimit:10;stroke-width:2.2px"/><rect x="739.34" y="1790.96" width="8.75" height="8.75" transform="matrix(0.16, -0.99, 0.99, 0.16, -1145.74, 2249.52)" style="fill:#4c545c"/><rect x="739.34" y="1347.46" width="8.75" height="8.75" transform="translate(-707.69 1875.29) rotate(-81.01)" style="fill:#4c545c"/><rect x="326.85" y="1349.75" width="8.22" height="7.67" transform="translate(-949.05 1904.31) rotate(-99.54)" style="fill:#4c545c"/><rect x="328.87" y="908.31" width="8.22" height="7.67" transform="translate(-511.36 1391.7) rotate(-99.54)" style="fill:#4c545c"/><rect x="330.9" y="466.87" width="8.22" height="7.67" transform="translate(-73.66 879.09) rotate(-99.54)" style="fill:#4c545c"/><rect x="332.92" y="25.42" width="8.22" height="7.67" transform="translate(364.03 366.48) rotate(-99.54)" style="fill:#4c545c"/><rect x="326.85" y="1793" width="8.22" height="7.67" transform="translate(-1386.17 2421.02) rotate(-99.54)" style="fill:#4c545c"/><rect x="737.58" y="1349.75" width="8.22" height="7.67" transform="translate(-470.25 2309.35) rotate(-99.54)" style="fill:#4c545c"/><rect x="739.6" y="908.31" width="8.22" height="7.67" transform="translate(-32.56 1796.74) rotate(-99.54)" style="fill:#4c545c"/><rect x="741.62" y="466.87" width="8.22" height="7.67" transform="translate(405.14 1284.14) rotate(-99.54)" style="fill:#4c545c"/><rect x="743.65" y="25.42" width="8.22" height="7.67" transform="translate(842.83 771.53) rotate(-99.54)" style="fill:#4c545c"/><rect x="737.58" y="1793" width="8.22" height="7.67" transform="translate(-907.37 2826.07) rotate(-99.54)" style="fill:#4c545c"/><rect x="1000.42" y="1305.74" width="8.22" height="7.67" transform="translate(-120.45 2517.27) rotate(-99.54)" style="fill:#4c545c"/><rect x="1002.45" y="864.3" width="8.22" height="7.67" transform="translate(317.25 2004.66) rotate(-99.54)" style="fill:#4c545c"/><rect x="1004.47" y="422.86" width="8.22" height="7.67" transform="translate(754.94 1492.05) rotate(-99.54)" style="fill:#4c545c"/><rect x="1000.42" y="1748.99" width="8.22" height="7.67" transform="translate(-557.57 3033.98) rotate(-99.54)" style="fill:#4c545c"/><rect x="739.34" y="903.96" width="8.75" height="8.75" transform="translate(-269.63 1501.05) rotate(-81.01)" style="fill:#4c545c"/><rect x="739.34" y="460.46" width="8.75" height="8.75" transform="translate(168.43 1126.82) rotate(-81.01)" style="fill:#4c545c"/><line x1="96.4" y1="1601.88" x2="117.1" y2="1597.79" style="fill:none;stroke:#4c545c;stroke-miterlimit:10;stroke-width:2.2px"/><line x1="96.4" y1="1159.51" x2="117.1" y2="1155.43" style="fill:none;stroke:#4c545c;stroke-miterlimit:10;stroke-width:2.2px"/><line x1="96.4" y1="717.15" x2="117.1" y2="713.06" style="fill:none;stroke:#4c545c;stroke-miterlimit:10;stroke-width:2.2px"/><line x1="96.4" y1="274.79" x2="117.1" y2="270.7" style="fill:none;stroke:#4c545c;stroke-miterlimit:10;stroke-width:2.2px"/><line x1="509.29" y1="1601.88" x2="529.99" y2="1597.79" style="fill:none;stroke:#4c545c;stroke-miterlimit:10;stroke-width:2.2px"/><line x1="509.29" y1="1159.51" x2="529.99" y2="1155.43" style="fill:none;stroke:#4c545c;stroke-miterlimit:10;stroke-width:2.2px"/><line x1="509.29" y1="717.15" x2="529.99" y2="713.06" style="fill:none;stroke:#4c545c;stroke-miterlimit:10;stroke-width:2.2px"/><line x1="509.29" y1="274.79" x2="529.99" y2="270.7" style="fill:none;stroke:#4c545c;stroke-miterlimit:10;stroke-width:2.2px"/><line x1="914.07" y1="1601.88" x2="934.77" y2="1597.79" style="fill:none;stroke:#4c545c;stroke-miterlimit:10;stroke-width:2.2px"/><line x1="914.07" y1="1159.51" x2="934.77" y2="1155.43" style="fill:none;stroke:#4c545c;stroke-miterlimit:10;stroke-width:2.2px"/><line x1="914.07" y1="717.15" x2="934.77" y2="713.06" style="fill:none;stroke:#4c545c;stroke-miterlimit:10;stroke-width:2.2px"/><line x1="914.07" y1="274.79" x2="934.77" y2="270.7" style="fill:none;stroke:#4c545c;stroke-miterlimit:10;stroke-width:2.2px"/><path d="M170.26,1556.76a11.5,11.5,0,0,1-2.47-22.87" style="fill:none;stroke:#4c545c;stroke-miterlimit:10;stroke-width:2.2px"/><path d="M170.26,1113.4a11.5,11.5,0,0,1-2.47-22.87" style="fill:none;stroke:#4c545c;stroke-miterlimit:10;stroke-width:2.2px"/><path d="M170.26,670a11.5,11.5,0,1,1-2.47-22.87" style="fill:none;stroke:#4c545c;stroke-miterlimit:10;stroke-width:2.2px"/><path d="M170.26,226.69a11.5,11.5,0,0,1-2.47-22.87" style="fill:none;stroke:#4c545c;stroke-miterlimit:10;stroke-width:2.2px"/><path d="M580.54,1556.76a11.5,11.5,0,0,1-2.47-22.87" style="fill:none;stroke:#4c545c;stroke-miterlimit:10;stroke-width:2.2px"/><path d="M580.54,1113.4a11.5,11.5,0,0,1-2.47-22.87" style="fill:none;stroke:#4c545c;stroke-miterlimit:10;stroke-width:2.2px"/><path d="M580.54,670a11.5,11.5,0,0,1-2.47-22.87" style="fill:none;stroke:#4c545c;stroke-miterlimit:10;stroke-width:2.2px"/><path d="M580.54,226.69a11.5,11.5,0,1,1-2.47-22.87" style="fill:none;stroke:#4c545c;stroke-miterlimit:10;stroke-width:2.2px"/><path d="M990.81,1556.76a11.5,11.5,0,0,1-2.47-22.87" style="fill:none;stroke:#4c545c;stroke-miterlimit:10;stroke-width:2.2px"/><path d="M990.81,1113.4a11.5,11.5,0,0,1-2.47-22.87" style="fill:none;stroke:#4c545c;stroke-miterlimit:10;stroke-width:2.2px"/><path d="M990.81,670a11.5,11.5,0,1,1-2.47-22.87" style="fill:none;stroke:#4c545c;stroke-miterlimit:10;stroke-width:2.2px"/><path d="M990.81,226.69a11.5,11.5,0,0,1-2.47-22.87" style="fill:none;stroke:#4c545c;stroke-miterlimit:10;stroke-width:2.2px"/><line x1="238.39" y1="1833.23" x2="224.61" y2="1817.1" style="fill:none;stroke:#4c545c;stroke-miterlimit:10;stroke-width:2.2px"/><line x1="238.39" y1="1388.49" x2="224.61" y2="1372.36" style="fill:none;stroke:#4c545c;stroke-miterlimit:10;stroke-width:2.2px"/><line x1="238.39" y1="943.74" x2="224.61" y2="927.61" style="fill:none;stroke:#4c545c;stroke-miterlimit:10;stroke-width:2.2px"/><line x1="238.39" y1="499" x2="224.61" y2="482.87" style="fill:none;stroke:#4c545c;stroke-miterlimit:10;stroke-width:2.2px"/><line x1="238.39" y1="54.26" x2="224.61" y2="38.13" style="fill:none;stroke:#4c545c;stroke-miterlimit:10;stroke-width:2.2px"/><line x1="1058.5" y1="1833.23" x2="1044.72" y2="1817.1" style="fill:none;stroke:#4c545c;stroke-miterlimit:10;stroke-width:2.2px"/><line x1="1058.5" y1="1388.49" x2="1044.72" y2="1372.36" style="fill:none;stroke:#4c545c;stroke-miterlimit:10;stroke-width:2.2px"/><line x1="1058.5" y1="943.74" x2="1044.72" y2="927.61" style="fill:none;stroke:#4c545c;stroke-miterlimit:10;stroke-width:2.2px"/><line x1="1058.5" y1="499" x2="1044.72" y2="482.87" style="fill:none;stroke:#4c545c;stroke-miterlimit:10;stroke-width:2.2px"/><line x1="1058.5" y1="54.26" x2="1044.72" y2="38.13" style="fill:none;stroke:#4c545c;stroke-miterlimit:10;stroke-width:2.2px"/><line x1="650.75" y1="1833.23" x2="636.97" y2="1817.1" style="fill:none;stroke:#4c545c;stroke-miterlimit:10;stroke-width:2.2px"/><line x1="650.75" y1="1388.49" x2="636.97" y2="1372.36" style="fill:none;stroke:#4c545c;stroke-miterlimit:10;stroke-width:2.2px"/><line x1="650.75" y1="943.74" x2="636.97" y2="927.61" style="fill:none;stroke:#4c545c;stroke-miterlimit:10;stroke-width:2.2px"/><line x1="650.75" y1="499" x2="636.97" y2="482.87" style="fill:none;stroke:#4c545c;stroke-miterlimit:10;stroke-width:2.2px"/><line x1="650.75" y1="54.26" x2="636.97" y2="38.13" style="fill:none;stroke:#4c545c;stroke-miterlimit:10;stroke-width:2.2px"/><polyline points="261 1754.79 261 1739.83 246.41 1739.83" style="fill:none;stroke:#4c545c;stroke-miterlimit:10;stroke-width:2.2px"/><polyline points="261 1312.21 261 1297.26 246.41 1297.26" style="fill:none;stroke:#4c545c;stroke-miterlimit:10;stroke-width:2.2px"/><polyline points="261 869.64 261 854.68 246.41 854.68" style="fill:none;stroke:#4c545c;stroke-miterlimit:10;stroke-width:2.2px"/><polyline points="261 427.06 261 412.1 246.41 412.1" style="fill:none;stroke:#4c545c;stroke-miterlimit:10;stroke-width:2.2px"/><polyline points="665.59 1754.79 665.59 1739.83 650.99 1739.83" style="fill:none;stroke:#4c545c;stroke-miterlimit:10;stroke-width:2.2px"/><polyline points="665.59 1312.21 665.59 1297.26 650.99 1297.26" style="fill:none;stroke:#4c545c;stroke-miterlimit:10;stroke-width:2.2px"/><polyline points="665.59 869.64 665.59 854.68 650.99 854.68" style="fill:none;stroke:#4c545c;stroke-miterlimit:10;stroke-width:2.2px"/><polyline points="665.59 427.06 665.59 412.1 650.99 412.1" style="fill:none;stroke:#4c545c;stroke-miterlimit:10;stroke-width:2.2px"/><polygon points="246.41 220.33 244.88 215.71 253 216.83 252 214.08 266 218.33 255.44 218.46 256.63 221.08 246.41 220.33" style="fill:#4c545c"/><polygon points="246.41 663 244.88 658.38 253 659.5 252 656.75 266 661 255.44 661.13 256.63 663.75 246.41 663" style="fill:#4c545c"/><polygon points="246.41 1105.67 244.88 1101.04 253 1102.17 252 1099.42 266 1103.67 255.44 1103.79 256.63 1106.42 246.41 1105.67" style="fill:#4c545c"/><polygon points="246.41 1548.33 244.88 1543.71 253 1544.83 252 1542.08 266 1546.33 255.44 1546.46 256.63 1549.08 246.41 1548.33" style="fill:#4c545c"/><polygon points="656.26 220.33 654.73 215.71 662.85 216.83 661.85 214.08 675.85 218.33 665.29 218.46 666.48 221.08 656.26 220.33" style="fill:#4c545c"/><polygon points="656.26 663 654.73 658.38 662.85 659.5 661.85 656.75 675.85 661 665.29 661.13 666.48 663.75 656.26 663" style="fill:#4c545c"/><polygon points="656.26 1105.67 654.73 1101.04 662.85 1102.17 661.85 1099.42 675.85 1103.67 665.29 1103.79 666.48 1106.42 656.26 1105.67" style="fill:#4c545c"/><polygon points="656.26 1548.33 654.73 1543.71 662.85 1544.83 661.85 1542.08 675.85 1546.33 665.29 1546.46 666.48 1549.08 656.26 1548.33" style="fill:#4c545c"/><polygon points="1066.11 220.33 1064.58 215.71 1072.7 216.83 1071.7 214.08 1085.7 218.33 1075.14 218.46 1076.33 221.08 1066.11 220.33" style="fill:#4c545c"/><polygon points="1066.11 663 1064.58 658.38 1072.7 659.5 1071.7 656.75 1085.7 661 1075.14 661.13 1076.33 663.75 1066.11 663" style="fill:#4c545c"/><polygon points="1066.11 1105.67 1064.58 1101.04 1072.7 1102.17 1071.7 1099.42 1085.7 1103.67 1075.14 1103.79 1076.33 1106.42 1066.11 1105.67" style="fill:#4c545c"/><polygon points="1066.11 1548.33 1064.58 1543.71 1072.7 1544.83 1071.7 1542.08 1085.7 1546.33 1075.14 1546.46 1076.33 1549.08 1066.11 1548.33" style="fill:#4c545c"/><polygon points="175.67 1637.33 182.54 1632.33 174 1627.67 175.67 1637.33" style="fill:#4c545c"/><polygon points="1002.05 1634.28 999.18 1626.83 992.87 1633.45 1002.05 1634.28" style="fill:#4c545c"/><polygon points="1002.05 1191.14 999.18 1183.68 992.87 1190.31 1002.05 1191.14" style="fill:#4c545c"/><polygon points="1002.05 748 999.18 740.54 992.87 747.17 1002.05 748" style="fill:#4c545c"/><polygon points="1002.05 304.86 999.18 297.4 992.87 304.03 1002.05 304.86" style="fill:#4c545c"/><polygon points="175.67 1195.79 182.54 1190.79 174 1186.13 175.67 1195.79" style="fill:#4c545c"/><polygon points="175.67 754.25 182.54 749.25 174 744.59 175.67 754.25" style="fill:#4c545c"/><polygon points="175.67 312.71 182.54 307.71 174 303.05 175.67 312.71" style="fill:#4c545c"/><polygon points="586.18 1637.33 593.06 1632.33 584.51 1627.67 586.18 1637.33" style="fill:#4c545c"/><polygon points="586.18 1195.79 593.06 1190.79 584.51 1186.13 586.18 1195.79" style="fill:#4c545c"/><polygon points="586.18 754.25 593.06 749.25 584.51 744.59 586.18 754.25" style="fill:#4c545c"/><polygon points="586.18 312.71 593.06 307.71 584.51 303.05 586.18 312.71" style="fill:#4c545c"/><polygon points="694.54 1687.25 701.41 1682.25 692.87 1677.58 694.54 1687.25" style="fill:#4c545c"/><polygon points="694.54 1245.71 701.41 1240.71 692.87 1236.04 694.54 1245.71" style="fill:#4c545c"/><polygon points="694.54 804.17 701.41 799.17 692.87 794.5 694.54 804.17" style="fill:#4c545c"/><polygon points="694.54 362.63 701.41 357.63 692.87 352.96 694.54 362.63" style="fill:#4c545c"/><polygon points="352.5 1702.06 365.5 1694.2 352.5 1687.04 352.5 1702.06" style="fill:none;stroke:#4c545c;stroke-miterlimit:10;stroke-width:2.2px"/><polygon points="352.5 1259.27 365.5 1251.41 352.5 1244.25 352.5 1259.27" style="fill:none;stroke:#4c545c;stroke-miterlimit:10;stroke-width:2.2px"/><polygon points="352.5 816.49 365.5 808.62 352.5 801.46 352.5 816.49" style="fill:none;stroke:#4c545c;stroke-miterlimit:10;stroke-width:2.2px"/><polygon points="352.5 373.7 365.5 365.83 352.5 358.68 352.5 373.7" style="fill:none;stroke:#4c545c;stroke-miterlimit:10;stroke-width:2.2px"/><polygon points="760.17 1702.06 773.17 1694.2 760.17 1687.04 760.17 1702.06" style="fill:none;stroke:#4c545c;stroke-miterlimit:10;stroke-width:2.2px"/><polygon points="760.17 1259.27 773.17 1251.41 760.17 1244.25 760.17 1259.27" style="fill:none;stroke:#4c545c;stroke-miterlimit:10;stroke-width:2.2px"/><polygon points="760.17 816.49 773.17 808.62 760.17 801.46 760.17 816.49" style="fill:none;stroke:#4c545c;stroke-miterlimit:10;stroke-width:2.2px"/><polygon points="760.17 373.7 773.17 365.83 760.17 358.68 760.17 373.7" style="fill:none;stroke:#4c545c;stroke-miterlimit:10;stroke-width:2.2px"/><line x1="1064.58" y1="1739.83" x2="1080" y2="1739.83" style="fill:none;stroke:#4c545c;stroke-miterlimit:10"/><line x1="1064.58" y1="1296" x2="1080" y2="1296" style="fill:none;stroke:#4c545c;stroke-miterlimit:10"/><line x1="1064.58" y1="852.17" x2="1080" y2="852.17" style="fill:none;stroke:#4c545c;stroke-miterlimit:10"/><line x1="1064.58" y1="408.33" x2="1080" y2="408.33" style="fill:none;stroke:#4c545c;stroke-miterlimit:10"/><line x1="1.29" y1="1861.54" x2="16.71" y2="1861.54" style="fill:none;stroke:#4c545c;stroke-miterlimit:10"/><line x1="1.29" y1="1417.71" x2="16.71" y2="1417.71" style="fill:none;stroke:#4c545c;stroke-miterlimit:10"/><line x1="1.29" y1="973.88" x2="16.71" y2="973.88" style="fill:none;stroke:#4c545c;stroke-miterlimit:10"/><line y1="533.33" x2="15.42" y2="533.33" style="fill:none;stroke:#4c545c;stroke-miterlimit:10"/><line x1="1.29" y1="90.83" x2="16.71" y2="90.83" style="fill:none;stroke:#4c545c;stroke-miterlimit:10"/><line x1="813.58" y1="1861.54" x2="829" y2="1861.54" style="fill:none;stroke:#4c545c;stroke-miterlimit:10"/><line x1="813.58" y1="1417.71" x2="829" y2="1417.71" style="fill:none;stroke:#4c545c;stroke-miterlimit:10"/><line x1="813.58" y1="973.88" x2="829" y2="973.88" style="fill:none;stroke:#4c545c;stroke-miterlimit:10"/><line x1="812.29" y1="533.33" x2="827.71" y2="533.33" style="fill:none;stroke:#4c545c;stroke-miterlimit:10"/><line x1="813.58" y1="90.83" x2="829" y2="90.83" style="fill:none;stroke:#4c545c;stroke-miterlimit:10"/><circle cx="357" cy="1567" r="7.33" style="fill:none;stroke:#4c545c;stroke-miterlimit:10;stroke-width:2.2px"/><circle cx="357" cy="1126.87" r="7.33" style="fill:none;stroke:#4c545c;stroke-miterlimit:10;stroke-width:2.2px"/><circle cx="357" cy="686.73" r="7.33" style="fill:none;stroke:#4c545c;stroke-miterlimit:10;stroke-width:2.2px"/><circle cx="357" cy="246.6" r="7.33" style="fill:none;stroke:#4c545c;stroke-miterlimit:10;stroke-width:2.2px"/><circle cx="765.36" cy="1567" r="7.33" style="fill:none;stroke:#4c545c;stroke-miterlimit:10;stroke-width:2.2px"/><circle cx="765.36" cy="1126.87" r="7.33" style="fill:none;stroke:#4c545c;stroke-miterlimit:10;stroke-width:2.2px"/><circle cx="765.36" cy="686.73" r="7.33" style="fill:none;stroke:#4c545c;stroke-miterlimit:10;stroke-width:2.2px"/><circle cx="765.36" cy="246.6" r="7.33" style="fill:none;stroke:#4c545c;stroke-miterlimit:10;stroke-width:2.2px"/></svg>